<?xml version="1.0" encoding="UTF-8" standalone="no"?>
<svg
   xmlns:dc="http://purl.org/dc/elements/1.1/"
   xmlns:cc="http://creativecommons.org/ns#"
   xmlns:rdf="http://www.w3.org/1999/02/22-rdf-syntax-ns#"
   xmlns:svg="http://www.w3.org/2000/svg"
   xmlns="http://www.w3.org/2000/svg"
   id="svg3802"
   version="1.1"
   viewBox="0 0 135.46666 135.46667"
   height="512"
   width="512">
  <defs
     id="defs3796" />
  <metadata
     id="metadata3799">
    <rdf:RDF>
      <cc:Work
         rdf:about="">
        <dc:format>image/svg+xml</dc:format>
        <dc:type
           rdf:resource="http://purl.org/dc/dcmitype/StillImage" />
        <dc:title></dc:title>
      </cc:Work>
    </rdf:RDF>
  </metadata>
  <g
     transform="translate(0,-161.53332)"
     id="layer1">
    <g
       id="text3806"
       style="font-style:normal;font-weight:normal;font-size:166.87060547px;line-height:125%;font-family:Sans;letter-spacing:0px;word-spacing:0px;fill:#000000;fill-opacity:1;stroke:none;stroke-width:6.67482424px;stroke-linecap:butt;stroke-linejoin:miter;stroke-opacity:1"
       aria-label="○">
      <path
         id="path3808"
         style="stroke-width:6.67482424px"
         d="m 40.722784,182.41577 q -27.13277,15.64412 -27.13277,46.85087 0,31.20676 27.13277,46.85088 13.444165,7.82206 26.969809,7.82206 13.607125,0 27.05129,-7.82206 27.132767,-15.64412 27.132767,-46.85088 0,-31.20675 -27.132767,-46.85087 -13.444165,-7.82206 -27.05129,-7.82206 -13.525644,0 -26.969809,7.82206 z M 35.915476,284.34698 Q 4.056879,265.93255 4.056879,229.26664 q 0,-36.6659 31.858597,-55.08033 15.888559,-9.20722 31.777117,-9.20722 15.970039,0 31.858597,9.20722 31.8586,18.41443 31.8586,55.08033 0,36.66591 -31.8586,55.08034 -15.888558,9.20722 -31.858597,9.20722 -15.888558,0 -31.777117,-9.20722 z" />
    </g>
  </g>
</svg>
