<?xml version="1.0" encoding="UTF-8" standalone="no"?>
<svg
   xmlns:dc="http://purl.org/dc/elements/1.1/"
   xmlns:cc="http://creativecommons.org/ns#"
   xmlns:rdf="http://www.w3.org/1999/02/22-rdf-syntax-ns#"
   xmlns:svg="http://www.w3.org/2000/svg"
   xmlns="http://www.w3.org/2000/svg"
   id="svg3802"
   version="1.1"
   viewBox="0 0 135.46666 135.46667"
   height="512"
   width="512">
  <defs
     id="defs3796" />
  <metadata
     id="metadata3799">
    <rdf:RDF>
      <cc:Work
         rdf:about="">
        <dc:format>image/svg+xml</dc:format>
        <dc:type
           rdf:resource="http://purl.org/dc/dcmitype/StillImage" />
        <dc:title></dc:title>
      </cc:Work>
    </rdf:RDF>
  </metadata>
  <g
     transform="translate(0,-161.53332)"
     id="layer1">
    <text
       id="text3875"
       y="259.31497"
       x="-54.522984"
       style="font-style:normal;font-weight:normal;font-size:6.61458302px;line-height:125%;font-family:Sans;letter-spacing:0px;word-spacing:0px;fill:#000000;fill-opacity:1;stroke:none;stroke-width:0.26458332px;stroke-linecap:butt;stroke-linejoin:miter;stroke-opacity:1"
       xml:space="preserve"><tspan
         style="stroke-width:0.26458332px"
         y="265.16733"
         x="-54.522984"
         id="tspan3873"></tspan></text>
    <g
       id="text3954"
       style="font-style:normal;font-weight:normal;font-size:164.50453186px;line-height:125%;font-family:Sans;letter-spacing:0px;word-spacing:0px;fill:#000000;fill-opacity:1;stroke:none;stroke-width:6.58018112px;stroke-linecap:butt;stroke-linejoin:miter;stroke-opacity:1"
       aria-label="▢">
      <path
         id="path4015"
         style="stroke-width:6.58018112px"
         d="m 14.116744,264.77006 q 0,18.31399 18.313981,18.31399 h 70.605215 q 18.31398,0 18.31398,-18.31399 v -71.00683 q 0,-18.31399 -18.31398,-18.31399 H 32.430725 q -18.313981,0 -18.313981,18.31399 z m -9.1569904,0 v -71.00683 q 0,-27.47098 27.4709714,-27.47098 h 70.605215 q 27.47097,0 27.47097,27.47098 v 71.00683 q 0,27.47098 -27.47097,27.47098 H 32.430725 q -27.4709714,0 -27.4709714,-27.47098 z" />
    </g>
    <path
       transform="rotate(90)"
       d="m 212.5623,-143.77151 h 33.40869 V 8.3048401 H 212.5623 Z m -59.33383,92.742522 v -33.408691 h 152.07635 v 33.408691 z"
       style="fill:#ffffff;stroke:none;stroke-width:0.26458332"
       id="rect3975-6" />
  </g>
</svg>
